<svg xmlns="http://www.w3.org/2000/svg" width="1200" height="675" viewBox="0 0 1200 675" role="img" aria-labelledby="title desc">
  <title id="title">OpenBell Receivables verified X Layer deployment</title>
  <desc id="desc">Verified X Layer mainnet deployment with a separate no-value testnet lifecycle</desc>
  <rect width="1200" height="675" fill="#f2eee4"/>
  <path d="M0 112H1200M0 630H1200M74 0V675M1126 0V675" stroke="#d1c9ba" stroke-width="1"/>
  <rect width="1200" height="56" fill="#151914"/>
  <text x="74" y="36" fill="#f7f3e9" font-family="Arial, sans-serif" font-size="18" font-weight="800" letter-spacing="2.1">VERIFIED MAINNET DEPLOYMENT · TESTNET FIXTURE · NO REAL VALUE</text>
  <g transform="translate(74 83)">
    <rect width="46" height="46" rx="10" fill="#19382f"/>
    <path d="M12 28h22M15 28v-7c0-5 3.6-9 8-9s8 4 8 9v7M19 33c.8 2.2 2 3 4 3s3.2-.8 4-3" fill="none" stroke="#d9f45a" stroke-width="3.5" stroke-linecap="round"/>
    <text x="60" y="33" fill="#151914" font-family="Georgia, serif" font-size="30" font-weight="700">OpenBell</text>
  </g>
  <g transform="translate(74 188)">
    <text fill="#bd3b24" font-family="Arial, sans-serif" font-size="17" font-weight="800" letter-spacing="2.2">REQUEST-FUNDED RECEIVABLES</text>
    <text y="88" fill="#151914" font-family="Georgia, serif" font-size="70" letter-spacing="-3">Fund invoices before</text>
    <text y="162" fill="#151914" font-family="Georgia, serif" font-size="70" letter-spacing="-3">they’re due.</text>
    <text y="215" fill="#3e463f" font-family="Arial, sans-serif" font-size="24">Signed invoice → bounded AI terms → exact USDG settlement</text>
  </g>
  <g transform="translate(74 496)">
    <rect width="660" height="91" fill="#19382f"/>
    <text x="23" y="28" fill="#d9f45a" font-family="Arial, sans-serif" font-size="14" font-weight="800" letter-spacing="1.4">GENUINE AI · IMMUTABLE CONTRACT BOUNDS</text>
    <text x="23" y="67" fill="#f7f3e9" font-family="Georgia, serif" font-size="28">75 funded → 75.75 settled → SETTLED</text>
  </g>
  <g transform="translate(795 146)">
    <rect width="331" height="441" fill="#fbf8f0" stroke="#151914" stroke-width="2"/>
    <text x="27" y="42" fill="#3e463f" font-family="Arial, sans-serif" font-size="13" font-weight="800" letter-spacing="1.7">INVOICE #OB-002</text>
    <text x="27" y="78" fill="#151914" font-family="Georgia, serif" font-size="29">AI-bounded advance</text>
    <path d="M27 104H304M165.5 104V246M27 175H304M27 246H304" stroke="#c9c2b3"/>
    <text x="27" y="131" fill="#3e463f" font-family="Arial, sans-serif" font-size="11" font-weight="700">FACE VALUE</text>
    <text x="27" y="162" fill="#151914" font-family="Georgia, serif" font-size="27">$100</text>
    <text x="185" y="131" fill="#3e463f" font-family="Arial, sans-serif" font-size="11" font-weight="700">REQUESTED</text>
    <text x="185" y="162" fill="#151914" font-family="Georgia, serif" font-size="27">$75</text>
    <text x="27" y="202" fill="#3e463f" font-family="Arial, sans-serif" font-size="11" font-weight="700">CONTRACT MAX</text>
    <text x="27" y="234" fill="#151914" font-family="Georgia, serif" font-size="27">$80</text>
    <text x="185" y="202" fill="#bd3b24" font-family="Arial, sans-serif" font-size="11" font-weight="800">MODEL CEILING</text>
    <text x="185" y="234" fill="#bd3b24" font-family="Georgia, serif" font-size="27">$85</text>
    <text x="27" y="286" fill="#245b4b" font-family="Arial, sans-serif" font-size="12" font-weight="800" letter-spacing="1.2">EXACT ADVANCE</text>
    <text x="27" y="347" fill="#151914" font-family="Georgia, serif" font-size="60" letter-spacing="-2">+$75.00</text>
    <rect x="27" y="378" width="277" height="40" fill="#bd3b24"/>
    <text x="165.5" y="404" text-anchor="middle" fill="#fff8f1" font-family="Arial, sans-serif" font-size="13" font-weight="900" letter-spacing="2">SETTLED</text>
  </g>
  <text x="1126" y="653" text-anchor="end" fill="#3e463f" font-family="Arial, sans-serif" font-size="13" font-weight="700">OPERATOR DISCLOSURE · ACTIVITY ABSENCE NOT INDEPENDENTLY VERIFIED</text>
</svg>
